# xmcd CD database file
#
# Track frame offsets:
#	150
#	11972
#	22967
#	32237
#	44132
#	55802
#	68597
#	80342
#	90437
#	100232
#	112802
#	123422
#	132617
#	143612
#	157007
#	166727
#	183572
#	196517
#	208112
#	220607
#	234452
#	245822
#	255692
#	267437
#	277907
#
# Disc length: 3862 seconds
#
# Revision: 1
# Processed by: cddbd v1.5.2PL0 Copyright (c) Steve Scherf et al.
# Submitted via: CDex 1.51
#
DISCID=600f1419
DTITLE=Various Artist - Country Western  CD 17  1955
DYEAR=2012
DGENRE=Country
TTITLE0=Kitty Wells and Red Foley-As Long As I Live
TTITLE1=Eddy Arnold-I Walked Alone Last Night
TTITLE2=Johnnie and Jack-Kiss Crazy Baby
TTITLE3=Hank Thompson-Annie Over
TTITLE4=Ferlin Husky-I Feel Better All Over
TTITLE5=Jean Shepard-Beautiful Lies
TTITLE6=Kitty Wells-There's Poison In Your Heart
TTITLE7=Jimmy C. Newman-Blue Darlin'-Stereo
TTITLE8=Wilburn Brothers-I Wanna Wanna Wanna
TTITLE9=Porter Wagoner-Company's Comin'
TTITLE10=Faron Young-If You Ain't Lovin
TTITLE11=Eddy Arnold-I've Been Thinking
TTITLE12=Goldie Hill and Justin Tubb-Sure Fire Kisses
TTITLE13=Simon Crum (Ferlin Husky)-Cuss You're So Sweet
TTITLE14=Tommy Colins-Untied
TTITLE15=Justin Tubb-I Gotta Go Get My Baby-Stereo
TTITLE16=Red and Betty Foley-A Satisfied Mind
TTITLE17=Jean Shepard-I Though Of You
TTITLE18=Ferlin Husky-I'll Baby Sit With You
TTITLE19=Jimmy C Newman-Daydreamin'
TTITLE20=Hank Thompson-Don't Take It Out On Me
TTITLE21=Kitty Wells-Whose Shoulder Will You Cry On-Stereo
TTITLE22=Eddy Arnold-Just Call Me Lonesome
TTITLE23=Carl Smith-Don't Tease Me
TTITLE24=Tennessee Ernie Ford-His Hands
EXTD=YEAR: 2012
EXTT0=
EXTT1=
EXTT2=
EXTT3=
EXTT4=
EXTT5=
EXTT6=
EXTT7=
EXTT8=
EXTT9=
EXTT10=
EXTT11=
EXTT12=
EXTT13=
EXTT14=
EXTT15=
EXTT16=
EXTT17=
EXTT18=
EXTT19=
EXTT20=
EXTT21=
EXTT22=
EXTT23=
EXTT24=
PLAYORDER=
